{"asset":{"version":"2.0","generator":"Blockbench 5.1.4 glTF exporter"},"scenes":[{"nodes":[4],"name":"blockbench_export"}],"scene":0,"nodes":[{"translation":[0,-0.04296875,-0.02734375],"name":"Trigger","mesh":0},{"rotation":[0.02181488503456112,0,0,0.9997620270799091],"translation":[0,0.125,-0.03125],"name":"Trigger","children":[0]},{"translation":[0,0.0048828125,0],"name":"Can","mesh":1},{"translation":[0,0.15885416666666666,-0.020833333333333336],"name":"Cap","mesh":2},{"translation":[0,0,0.0625],"name":"SprayBoost","children":[1,2,3]}],"bufferViews":[{"buffer":0,"byteOffset":0,"byteLength":288,"target":34962,"byteStride":12},{"buffer":0,"byteOffset":288,"byteLength":288,"target":34962,"byteStride":12},{"buffer":0,"byteOffset":576,"byteLength":192,"target":34962,"byteStride":8},{"buffer":0,"byteOffset":768,"byteLength":72,"target":34963},{"buffer":0,"byteOffset":840,"byteLength":1440,"target":34962,"byteStride":12},{"buffer":0,"byteOffset":2280,"byteLength":1440,"target":34962,"byteStride":12},{"buffer":0,"byteOffset":3720,"byteLength":960,"target":34962,"byteStride":8},{"buffer":0,"byteOffset":4680,"byteLength":360,"target":34963},{"buffer":0,"byteOffset":5040,"byteLength":480,"target":34962,"byteStride":12},{"buffer":0,"byteOffset":5520,"byteLength":480,"target":34962,"byteStride":12},{"buffer":0,"byteOffset":6000,"byteLength":320,"target":34962,"byteStride":8},{"buffer":0,"byteOffset":6320,"byteLength":120,"target":34963}],"buffers":[{"byteLength":6440,"uri":"data:application/octet-stream;base64,"}],"accessors":[{"bufferView":0,"componentType":5126,"count":24,"max":[0.03125,0.08984375,0.04296875],"min":[-0.03125,-0.08203125,-0.05078125],"type":"VEC3"},{"bufferView":1,"componentType":5126,"count":24,"max":[1,0.9805806875228882,1],"min":[-1,-1,-0.9958931803703308],"type":"VEC3"},{"bufferView":2,"componentType":5126,"count":24,"max":[0.03125,0.03125],"min":[0,0],"type":"VEC2"},{"bufferView":3,"componentType":5123,"count":36,"max":[23],"min":[0],"type":"SCALAR"},{"bufferView":4,"componentType":5126,"count":120,"max":[0.078125,0.1669921875,0.078125],"min":[-0.078125,-0.1455078125,-0.078125],"type":"VEC3"},{"bufferView":5,"componentType":5126,"count":120,"max":[1,1,1],"min":[-1,-1,-1],"type":"VEC3"},{"bufferView":6,"componentType":5126,"count":120,"max":[0.06897187232971191,0.125],"min":[0,0],"type":"VEC2"},{"bufferView":7,"componentType":5123,"count":180,"max":[119],"min":[0],"type":"SCALAR"},{"bufferView":8,"componentType":5126,"count":40,"max":[0.03125,0.0442708320915699,0.0677083358168602],"min":[-0.03125,-0.0338541679084301,-0.0729166641831398],"type":"VEC3"},{"bufferView":9,"componentType":5126,"count":40,"max":[1,1,1],"min":[-1,-1,-1],"type":"VEC3"},{"bufferView":10,"componentType":5126,"count":40,"max":[0.015625,0.015625],"min":[0,0],"type":"VEC2"},{"bufferView":11,"componentType":5123,"count":60,"max":[39],"min":[0],"type":"SCALAR"}],"materials":[{"pbrMetallicRoughness":{"metallicFactor":0,"roughnessFactor":1},"alphaMode":"MASK","alphaCutoff":0.05,"doubleSided":true},{"pbrMetallicRoughness":{"metallicFactor":0,"roughnessFactor":1},"alphaMode":"MASK","alphaCutoff":0.05,"doubleSided":true},{"pbrMetallicRoughness":{"metallicFactor":0,"roughnessFactor":1},"alphaMode":"MASK","alphaCutoff":0.05,"doubleSided":true}],"meshes":[{"primitives":[{"mode":4,"attributes":{"POSITION":0,"NORMAL":1,"TEXCOORD_0":2},"indices":3,"material":0}]},{"primitives":[{"mode":4,"attributes":{"POSITION":4,"NORMAL":5,"TEXCOORD_0":6},"indices":7,"material":1}]},{"primitives":[{"mode":4,"attributes":{"POSITION":8,"NORMAL":9,"TEXCOORD_0":10},"indices":11,"material":2}]}]}